Coordinates
version=1
nRows=10
nColumns=40
inDegrees=yes

Units are S.I. units (second, meters, Newtons, ...)
Angles are in degrees.

endheader
time	pelvis_tilt	pelvis_list	pelvis_rotation	pelvis_tx	pelvis_ty	pelvis_tz	hip_flexion_r	hip_adduction_r	hip_rotation_r	knee_angle_r	knee_angle_r_beta	ankle_angle_r	subtalar_angle_r	mtp_angle_r	hip_flexion_l	hip_adduction_l	hip_rotation_l	knee_angle_l	knee_angle_l_beta	ankle_angle_l	subtalar_angle_l	mtp_angle_l	lumbar_extension	lumbar_bending	lumbar_rotation	arm_flex_r	arm_add_r	arm_rot_r	elbow_flex_r	pro_sup_r	wrist_flex_r	wrist_dev_r	arm_flex_l	arm_add_l	arm_rot_l	elbow_flex_l	pro_sup_l	wrist_flex_l	wrist_dev_l
      1.13000000	     -2.00343198	      2.00971525	      0.07487724	     -0.81813365	      0.89627479	      1.41388598	      0.10342909	     -6.70886557	    -10.09640006	    -39.74059104	     -0.69360416	     -3.48918005	      5.80464547	     -5.15796573	     14.83240542	     -3.06921209	     12.47200014	    -14.12449073	     -0.24651887	     -0.29646306	     -1.32939112	     -6.45159972	     -6.30376185	     -1.48705212	      3.43479741	      8.02700264	    -10.92270747	     24.64926396	     19.15145464	     89.95437384	      0.00000000	      0.00000000	     -1.58413073	      7.35138426	    -16.11757966	     14.87258972	     89.95437384	      0.00000000	      0.00000000
      1.14000000	     -2.30414941	      2.56149243	     -0.33948950	     -0.81178296	      0.89567311	      1.41239694	      1.72227493	     -7.64365497	     -9.34113298	    -42.01704390	     -0.73333576	     -6.04882871	      4.46453370	     -4.62129762	     14.61618610	     -3.70880498	     12.99394401	    -13.99947257	     -0.24433689	      0.16060371	     -1.61871008	     -6.34887402	     -5.85525477	     -2.14292575	      3.64691708	      7.79680938	    -10.94039021	     24.98996819	     19.17026274	     89.95437384	      0.00000000	      0.00000000	     -1.29559822	      7.63107097	    -16.99620574	     15.24703050	     89.95437384	      0.00000000	      0.00000000
      1.15000000	     -2.18683513	      2.67899265	     -0.40344332	     -0.80542433	      0.89566717	      1.41086608	      2.63352740	     -7.96882640	     -8.80911255	    -43.85733493	     -0.76545490	     -7.94655756	      3.77993559	     -4.29762307	     14.03281921	     -3.91878242	     13.05945149	    -14.08461746	     -0.24582295	      0.85811528	     -1.97384899	     -6.37102982	     -5.92191528	     -2.30375194	      3.42126624	      7.71636945	    -10.89975324	     24.93768544	     19.18768003	     89.95437384	      0.00000000	      0.00000000	     -0.93107804	      7.80077749	    -17.06979873	     15.62051063	     89.95437384	      0.00000000	      0.00000000
      1.16000000	     -2.21211891	      3.05825794	     -0.61854520	     -0.79923748	      0.89543775	      1.40945981	      3.86954996	     -8.41420400	     -7.82564353	    -45.81157595	     -0.79956284	     -9.39319528	      1.86291994	     -3.85856185	     13.57780291	     -4.37760264	     13.53594181	    -14.03170255	     -0.24489941	      1.10172274	     -2.38516786	     -6.32442460	     -5.87541903	     -2.75875248	      3.32947605	      7.57701035	    -10.86594891	     24.84503015	     19.38106276	     89.95437384	      0.00000000	      0.00000000	     -0.51044671	      8.02944875	    -17.40351118	     15.93777420	     89.95437384	      0.00000000	      0.00000000
      1.17000000	     -2.02369677	      3.25658532	     -0.67697883	     -0.79311415	      0.89556615	      1.40801466	      4.73007848	     -8.68756760	     -7.21281433	    -47.54688197	     -0.82984964	     -9.24069921	      0.70503484	     -3.70937207	     12.93795175	     -4.67858881	     13.63114505	    -14.09842475	     -0.24606393	      1.74017474	     -2.72818255	     -6.34029136	     -6.05730293	     -2.99933099	      3.02251498	      7.58084800	    -10.78762000	     24.74953915	     19.42960135	     89.95437384	      0.00000000	      0.00000000	     -0.09700800	      8.24882820	    -17.40027364	     16.40395985	     89.95437384	      0.00000000	      0.00000000
      1.18000000	     -1.86891598	      3.52212437	     -0.85933583	     -0.78701850	      0.89565420	      1.40680054	      5.72517432	     -9.01090179	     -6.62206906	    -49.29088351	     -0.86028821	     -8.24137802	     -1.23508155	     -3.54149759	     12.24778373	     -5.03814869	     13.85175446	    -13.97907997	     -0.24398097	      2.12380193	     -3.03916276	     -6.29850730	     -6.19007088	     -3.32548259	      2.84051466	      7.57246231	    -10.71701864	     24.73181649	     19.46560756	     89.95437384	      0.00000000	      0.00000000	      0.43997696	      8.45344954	    -17.57897814	     16.58725296	     89.95437384	      0.00000000	      0.00000000
      1.19000000	     -1.70179624	      3.65807410	     -1.06393207	     -0.78110134	      0.89586756	      1.40571999	      6.72082125	     -9.13073934	     -6.05930758	    -50.84640471	     -0.88743718	     -7.26830754	     -3.70083695	     -3.17148000	     11.60767858	     -5.24869935	     14.10260534	    -13.92774900	     -0.24308508	      2.28400788	     -3.17333662	     -6.16263669	     -6.36527578	     -3.49838102	      2.70786663	      7.55280630	    -10.66557365	     24.44176608	     19.58498478	     89.95437384	      0.00000000	      0.00000000	      0.93953505	      8.68189442	    -17.68066140	     16.98129396	     89.95437384	      0.00000000	      0.00000000
      1.20000000	     -1.43893216	      3.74349602	     -1.06032362	     -0.77517307	      0.89630440	      1.40439682	      7.46639545	     -9.27396651	     -5.87250212	    -52.09156489	     -0.90916932	     -6.06848414	     -5.07589554	     -3.03916885	     10.86362709	     -5.46230954	     14.02746148	    -13.91540202	     -0.24286958	      2.88051000	     -3.50076732	     -6.19383464	     -6.63635574	     -3.60019458	      2.32307797	      7.62957105	    -10.57305086	     24.26230073	     19.57389475	     89.95437384	      0.00000000	      0.00000000	      1.59685208	      8.82813246	    -17.63685360	     17.11654436	     89.95437384	      0.00000000	      0.00000000
      1.21000000	     -1.22350017	      3.76592566	     -1.16827386	     -0.76942777	      0.89681250	      1.40329127	      8.31165468	     -9.32227805	     -5.66781872	    -53.21157496	     -0.92871718	     -4.71016451	     -7.04636068	     -2.78035753	     10.15560444	     -5.59621531	     14.04885961	    -13.81407847	     -0.24110115	      3.22549416	     -3.61137774	     -6.14154247	     -6.87102618	     -3.63067837	      2.06576423	      7.67419818	    -10.50499280	     24.00445431	     19.61536232	     89.95437384	      0.00000000	      0.00000000	      2.27249894	      8.96936003	    -17.34883391	     17.20925242	     89.95437384	      0.00000000	      0.00000000
      1.22000000	     -1.14773051	      3.55239782	     -1.15595296	     -0.76399137	      0.89730158	      1.40230478	      9.29134363	     -8.95854989	     -5.46541008	    -54.05658572	     -0.94346540	     -4.25181687	     -9.75668154	     -1.72080762	      9.69213394	     -5.44923792	     13.99869442	    -13.87501895	     -0.24216476	      3.54584279	     -3.48555728	     -5.92973131	     -6.99306889	     -3.38640386	      1.74967751	      7.73435317	    -10.37980728	     23.34175710	     19.59269616	     89.95437384	      0.00000000	      0.00000000	      2.91289835	      9.07050532	    -17.06651326	     17.46584549	     89.95437384	      0.00000000	      0.00000000
